<svg xmlns="http://www.w3.org/2000/svg" xmlns:xlink="http://www.w3.org/1999/xlink" id="processonSvg1000" viewBox="43.0 23.0 2159.5 1393.0" width="2159.5" height="1393.0"><defs id="ProcessOnDefs1001"><marker id="ProcessOnMarker1145" markerUnits="userSpaceOnUse" orient="auto" markerWidth="16.23606797749979" markerHeight="10.550836550532098" viewBox="-1.0 -1.3763819204711736 16.23606797749979 10.550836550532098" refX="15.23606797749979" refY="3.8990363547948754"><path id="ProcessOnPath1146" d="M12.0 3.8990363547948754L0.0 7.798072709589751V0.0Z" stroke="#323232" stroke-width="2.0" fill="#323232" transform="matrix(-1.0,1.2246467991473532E-16,-1.2246467991473532E-16,-1.0,14.23606797749979,7.798072709589751)"/></marker><marker id="ProcessOnMarker1215" markerUnits="userSpaceOnUse" orient="auto" markerWidth="16.23606797749979" markerHeight="10.550836550532098" viewBox="-1.0 -1.3763819204711736 16.23606797749979 10.550836550532098" refX="15.23606797749979" refY="3.8990363547948754"><path id="ProcessOnPath1216" d="M12.0 3.8990363547948754L0.0 7.798072709589751V0.0Z" stroke="#323232" stroke-width="2.0" fill="#323232" transform="matrix(-1.0,1.2246467991473532E-16,-1.2246467991473532E-16,-1.0,14.23606797749979,7.798072709589751)"/></marker><marker id="ProcessOnMarker1319" markerUnits="userSpaceOnUse" orient="auto" markerWidth="16.23606797749979" markerHeight="10.550836550532098" viewBox="-1.0 -1.3763819204711736 16.23606797749979 10.550836550532098" refX="15.23606797749979" refY="3.8990363547948754"><path id="ProcessOnPath1320" d="M12.0 3.8990363547948754L0.0 7.798072709589751V0.0Z" stroke="#323232" stroke-width="2.0" fill="#323232" transform="matrix(-1.0,1.2246467991473532E-16,-1.2246467991473532E-16,-1.0,14.23606797749979,7.798072709589751)"/></marker></defs><g id="ProcessOnG1002"><path id="ProcessOnPath1003" d="M43.0 23.0H2202.5V1416.0H43.0V23.0Z" fill="none"/><g id="ProcessOnG1004"><g id="ProcessOnG1005" transform="matrix(1.0,0.0,0.0,1.0,63.0,527.0)" opacity="1.0"><path id="ProcessOnPath1006" d="M0.0 0.0L100.0 0.0L100.0 70.0L0.0 70.0Z" stroke="#323232" stroke-width="2.0" stroke-dasharray="none" opacity="1.0" fill="#ffffff"/><g id="ProcessOnG1007" transform="matrix(1.0,0.0,0.0,1.0,10.0,26.875)"><text id="ProcessOnText1008" fill="#000000" font-size="13" x="39.0" y="13.325" font-family="微软雅黑" font-weight="normal" font-style="normal" text-decoration="none" family="微软雅黑" text-anchor="middle" size="13">管理员</text></g></g><g id="ProcessOnG1009" transform="matrix(1.0,0.0,0.0,1.0,461.0,206.0)" opacity="1.0"><path id="ProcessOnPath1010" d="M0.0 0.0L100.0 0.0L100.0 70.0L0.0 70.0Z" stroke="#323232" stroke-width="2.0" stroke-dasharray="none" opacity="1.0" fill="#ffffff"/><g id="ProcessOnG1011" transform="matrix(1.0,0.0,0.0,1.0,10.0,26.875)"><text id="ProcessOnText1012" fill="#000000" font-size="13" x="39.0" y="13.325" font-family="微软雅黑" font-weight="normal" font-style="normal" text-decoration="none" family="微软雅黑" text-anchor="middle" size="13">用户</text></g></g><g id="ProcessOnG1013" transform="matrix(1.0,0.0,0.0,1.0,461.0,512.0)" opacity="1.0"><path id="ProcessOnPath1014" d="M0.0 0.0L100.0 0.0L100.0 70.0L0.0 70.0Z" stroke="#323232" stroke-width="2.0" stroke-dasharray="none" opacity="1.0" fill="#ffffff"/><g id="ProcessOnG1015" transform="matrix(1.0,0.0,0.0,1.0,10.0,26.875)"><text id="ProcessOnText1016" fill="#000000" font-size="13" x="39.0" y="13.325" font-family="微软雅黑" font-weight="normal" font-style="normal" text-decoration="none" family="微软雅黑" text-anchor="middle" size="13">个人用户</text></g></g><g id="ProcessOnG1017" transform="matrix(1.0,0.0,0.0,1.0,933.0,497.0)" opacity="1.0"><path id="ProcessOnPath1018" d="M0.0 0.0L100.0 0.0L100.0 70.0L0.0 70.0Z" stroke="#323232" stroke-width="2.0" stroke-dasharray="none" opacity="1.0" fill="#ffffff"/><g id="ProcessOnG1019" transform="matrix(1.0,0.0,0.0,1.0,10.0,26.875)"><text id="ProcessOnText1020" fill="#000000" font-size="13" x="39.0" y="13.325" font-family="微软雅黑" font-weight="normal" font-style="normal" text-decoration="none" family="微软雅黑" text-anchor="middle" size="13">商家用户</text></g></g><g id="ProcessOnG1021" transform="matrix(1.0,0.0,0.0,1.0,244.0,96.0)" opacity="1.0"><path id="ProcessOnPath1022" d="M0.0 35.0C0.0 -11.666666666666666 100.0 -11.666666666666666 100.0 35.0C100.0 81.66666666666667 0.0 81.66666666666667 0.0 35.0Z" stroke="#323232" stroke-width="2.0" stroke-dasharray="none" opacity="1.0" fill="#ffffff"/><g id="ProcessOnG1023" transform="matrix(1.0,0.0,0.0,1.0,10.0,26.875)"><text id="ProcessOnText1024" fill="#000000" font-size="13" x="39.0" y="13.325" font-family="微软雅黑" font-weight="normal" font-style="normal" text-decoration="none" family="微软雅黑" text-anchor="middle" size="13">密码</text></g></g><g id="ProcessOnG1025" transform="matrix(1.0,0.0,0.0,1.0,717.0,81.0)" opacity="1.0"><path id="ProcessOnPath1026" d="M0.0 35.0C0.0 -11.666666666666666 100.0 -11.666666666666666 100.0 35.0C100.0 81.66666666666667 0.0 81.66666666666667 0.0 35.0Z" stroke="#323232" stroke-width="2.0" stroke-dasharray="none" opacity="1.0" fill="#ffffff"/><g id="ProcessOnG1027" transform="matrix(1.0,0.0,0.0,1.0,10.0,26.875)"><text id="ProcessOnText1028" fill="#000000" font-size="13" x="39.0" y="13.325" font-family="微软雅黑" font-weight="normal" font-style="normal" text-decoration="none" family="微软雅黑" text-anchor="middle" size="13">用户名</text></g></g><g id="ProcessOnG1029"><path id="ProcessOnPath1030" d="M561.0 241.0L717.0 116.0" stroke="#323232" stroke-width="2.0" stroke-dasharray="none" fill="none"/></g><g id="ProcessOnG1031" transform="matrix(1.0,0.0,0.0,1.0,749.0,234.0)" opacity="1.0"><path id="ProcessOnPath1032" d="M0.0 35.0C0.0 -11.666666666666666 100.0 -11.666666666666666 100.0 35.0C100.0 81.66666666666667 0.0 81.66666666666667 0.0 35.0Z" stroke="#323232" stroke-width="2.0" stroke-dasharray="none" opacity="1.0" fill="#ffffff"/><g id="ProcessOnG1033" transform="matrix(1.0,0.0,0.0,1.0,10.0,26.875)"><text id="ProcessOnText1034" fill="#000000" font-size="13" x="39.0" y="13.325" font-family="微软雅黑" font-weight="normal" font-style="normal" text-decoration="none" family="微软雅黑" text-anchor="middle" size="13">昵称</text></g></g><g id="ProcessOnG1035" transform="matrix(1.0,0.0,0.0,1.0,175.0,220.0)" opacity="1.0"><path id="ProcessOnPath1036" d="M0.0 35.0C0.0 -11.666666666666666 100.0 -11.666666666666666 100.0 35.0C100.0 81.66666666666667 0.0 81.66666666666667 0.0 35.0Z" stroke="#323232" stroke-width="2.0" stroke-dasharray="none" opacity="1.0" fill="#ffffff"/><g id="ProcessOnG1037" transform="matrix(1.0,0.0,0.0,1.0,10.0,26.875)"><text id="ProcessOnText1038" fill="#000000" font-size="13" x="39.0" y="13.325" font-family="微软雅黑" font-weight="normal" font-style="normal" text-decoration="none" family="微软雅黑" text-anchor="middle" size="13">邮箱</text></g></g><g id="ProcessOnG1039"><path id="ProcessOnPath1040" d="M461.0 241.0L275.0 255.0" stroke="#323232" stroke-width="2.0" stroke-dasharray="none" fill="none"/></g><g id="ProcessOnG1041" transform="matrix(1.0,0.0,0.0,1.0,374.0,642.0)" opacity="1.0"><path id="ProcessOnPath1042" d="M0.0 35.0C0.0 -11.666666666666666 100.0 -11.666666666666666 100.0 35.0C100.0 81.66666666666667 0.0 81.66666666666667 0.0 35.0Z" stroke="#323232" stroke-width="2.0" stroke-dasharray="none" opacity="1.0" fill="#ffffff"/><g id="ProcessOnG1043" transform="matrix(1.0,0.0,0.0,1.0,10.0,26.875)"><text id="ProcessOnText1044" fill="#000000" font-size="13" x="39.0" y="13.325" font-family="微软雅黑" font-weight="normal" font-style="normal" text-decoration="none" family="微软雅黑" text-anchor="middle" size="13">偏好</text></g></g><g id="ProcessOnG1045" transform="matrix(1.0,0.0,0.0,1.0,562.0,642.0)" opacity="1.0"><path id="ProcessOnPath1046" d="M0.0 35.0C0.0 -11.666666666666666 100.0 -11.666666666666666 100.0 35.0C100.0 81.66666666666667 0.0 81.66666666666667 0.0 35.0Z" stroke="#323232" stroke-width="2.0" stroke-dasharray="none" opacity="1.0" fill="#ffffff"/><g id="ProcessOnG1047" transform="matrix(1.0,0.0,0.0,1.0,10.0,26.875)"><text id="ProcessOnText1048" fill="#000000" font-size="13" x="39.0" y="13.325" font-family="微软雅黑" font-weight="normal" font-style="normal" text-decoration="none" family="微软雅黑" text-anchor="middle" size="13">所在地</text></g></g><g id="ProcessOnG1049" transform="matrix(1.0,0.0,0.0,1.0,732.0,472.0)" opacity="1.0"><path id="ProcessOnPath1050" d="M0.0 35.0C0.0 -11.666666666666666 100.0 -11.666666666666666 100.0 35.0C100.0 81.66666666666667 0.0 81.66666666666667 0.0 35.0Z" stroke="#323232" stroke-width="2.0" stroke-dasharray="none" opacity="1.0" fill="#ffffff"/><g id="ProcessOnG1051" transform="matrix(1.0,0.0,0.0,1.0,10.0,26.875)"><text id="ProcessOnText1052" fill="#000000" font-size="13" x="39.0" y="13.325" font-family="微软雅黑" font-weight="normal" font-style="normal" text-decoration="none" family="微软雅黑" text-anchor="middle" size="13">所属商家</text></g></g><g id="ProcessOnG1053" transform="matrix(1.0,0.0,0.0,1.0,770.0,597.0)" opacity="1.0"><path id="ProcessOnPath1054" d="M0.0 35.0C0.0 -11.666666666666666 100.0 -11.666666666666666 100.0 35.0C100.0 81.66666666666667 0.0 81.66666666666667 0.0 35.0Z" stroke="#323232" stroke-width="2.0" stroke-dasharray="none" opacity="1.0" fill="#ffffff"/><g id="ProcessOnG1055" transform="matrix(1.0,0.0,0.0,1.0,10.0,26.875)"><text id="ProcessOnText1056" fill="#000000" font-size="13" x="39.0" y="13.325" font-family="微软雅黑" font-weight="normal" font-style="normal" text-decoration="none" family="微软雅黑" text-anchor="middle" size="13">商家地址</text></g></g><g id="ProcessOnG1057" transform="matrix(1.0,0.0,0.0,1.0,1122.0,582.0)" opacity="1.0"><path id="ProcessOnPath1058" d="M0.0 35.0C0.0 -11.666666666666666 100.0 -11.666666666666666 100.0 35.0C100.0 81.66666666666667 0.0 81.66666666666667 0.0 35.0Z" stroke="#323232" stroke-width="2.0" stroke-dasharray="none" opacity="1.0" fill="#ffffff"/><g id="ProcessOnG1059" transform="matrix(1.0,0.0,0.0,1.0,10.0,26.875)"><text id="ProcessOnText1060" fill="#000000" font-size="13" x="39.0" y="13.325" font-family="微软雅黑" font-weight="normal" font-style="normal" text-decoration="none" family="微软雅黑" text-anchor="middle" size="13">类型</text></g></g><g id="ProcessOnG1061"><path id="ProcessOnPath1062" d="M933.0 532.0L832.0 507.0" stroke="#323232" stroke-width="2.0" stroke-dasharray="none" fill="none"/></g><g id="ProcessOnG1063"><path id="ProcessOnPath1064" d="M1033.0 532.0L1122.0 484.0" stroke="#323232" stroke-width="2.0" stroke-dasharray="none" fill="none"/></g><g id="ProcessOnG1065" transform="matrix(1.0,0.0,0.0,1.0,461.0,43.0)" opacity="1.0"><path id="ProcessOnPath1066" d="M0.0 35.0C0.0 -11.666666666666666 100.0 -11.666666666666666 100.0 35.0C100.0 81.66666666666667 0.0 81.66666666666667 0.0 35.0Z" stroke="#323232" stroke-width="2.0" stroke-dasharray="none" opacity="1.0" fill="#ffffff"/><g id="ProcessOnG1067" transform="matrix(1.0,0.0,0.0,1.0,10.0,26.875)"><text id="ProcessOnText1068" fill="#000000" font-size="13" x="39.0" y="13.325" font-family="微软雅黑" font-weight="normal" font-style="normal" text-decoration="underline" family="微软雅黑" text-anchor="middle" size="13">用户编号</text></g></g><g id="ProcessOnG1069"><path id="ProcessOnPath1070" d="M511.0 582.0L432.9581109339984 642.9088465180732" stroke="#323232" stroke-width="2.0" stroke-dasharray="none" fill="none"/></g><g id="ProcessOnG1071"><path id="ProcessOnPath1072" d="M511.0 582.0L591.2940952255126 644.8296291314454" stroke="#323232" stroke-width="2.0" stroke-dasharray="none" fill="none"/></g><g id="ProcessOnG1073" transform="matrix(-1.0,1.2246467991473532E-16,-1.2246467991473532E-16,-1.0,552.0,427.0)" opacity="1.0"><path id="ProcessOnPath1074" d="M41.0 0.0L82.0 74.0L0.0 74.0Z" stroke="#323232" stroke-width="2.0" stroke-dasharray="none" opacity="1.0" fill="#ffffff"/></g><g id="ProcessOnG1075" transform="matrix(1.0,0.0,0.0,1.0,431.0,362.0)" opacity="1.0"><path id="ProcessOnPath1076" d="M0.0 0.0L160.0 0.0L160.0 40.0L0.0 40.0Z" stroke="none" stroke-width="0.0" stroke-dasharray="none" opacity="1.0" fill="none"/><g id="ProcessOnG1077" transform="matrix(1.0,0.0,0.0,1.0,0.0,11.875)"><text id="ProcessOnText1078" fill="#000000" font-size="13" x="79.0" y="13.325" font-family="微软雅黑" font-weight="normal" font-style="normal" text-decoration="none" family="微软雅黑" text-anchor="middle" size="13">ISA</text></g></g><g id="ProcessOnG1079"><path id="ProcessOnPath1080" d="M490.5 390.0L113.0 527.0" stroke="#323232" stroke-width="2.0" stroke-dasharray="none" fill="none"/></g><g id="ProcessOnG1081"><path id="ProcessOnPath1082" d="M511.0 427.0L511.0 512.0" stroke="#323232" stroke-width="2.0" stroke-dasharray="none" fill="none"/></g><g id="ProcessOnG1083"><path id="ProcessOnPath1084" d="M531.5 390.0L983.0 497.0" stroke="#323232" stroke-width="2.0" stroke-dasharray="none" fill="none"/></g><g id="ProcessOnG1085"><path id="ProcessOnPath1086" d="M511.0 353.0L511.0 276.0" stroke="#323232" stroke-width="2.0" stroke-dasharray="none" fill="none"/></g><g id="ProcessOnG1087"><path id="ProcessOnPath1088" d="M820.0 597.0L933.0 556.0" stroke="#323232" stroke-width="2.0" stroke-dasharray="none" fill="none"/></g><g id="ProcessOnG1089"><path id="ProcessOnPath1090" d="M1128.276608177156 600.2943057454041L1033.0 552.0" stroke="#323232" stroke-width="2.0" stroke-dasharray="none" fill="none"/></g><g id="ProcessOnG1091"><path id="ProcessOnPath1092" d="M525.0 206.0L511.0 113.0" stroke="#323232" stroke-width="2.0" stroke-dasharray="none" fill="none"/></g><g id="ProcessOnG1093"><path id="ProcessOnPath1094" d="M561.0 256.0L749.0 269.0" stroke="#323232" stroke-width="2.0" stroke-dasharray="none" fill="none"/></g><g id="ProcessOnG1095"><path id="ProcessOnPath1096" d="M338.233955556881 148.35721239031346L461.0 217.0" stroke="#323232" stroke-width="2.0" stroke-dasharray="none" fill="none"/></g><g id="ProcessOnG1097" transform="matrix(1.0,0.0,0.0,1.0,214.0,852.0)" opacity="1.0"><path id="ProcessOnPath1098" d="M0.0 0.0L100.0 0.0L100.0 70.0L0.0 70.0Z" stroke="#323232" stroke-width="2.0" stroke-dasharray="none" opacity="1.0" fill="#ffffff"/><g id="ProcessOnG1099" transform="matrix(1.0,0.0,0.0,1.0,10.0,26.875)"><text id="ProcessOnText1100" fill="#000000" font-size="13" x="39.0" y="13.325" font-family="微软雅黑" font-weight="normal" font-style="normal" text-decoration="none" family="微软雅黑" text-anchor="middle" size="13">用户</text></g></g><g id="ProcessOnG1101" transform="matrix(1.0,0.0,0.0,1.0,402.0,852.0)" opacity="1.0"><path id="ProcessOnPath1102" d="M0.0 35.0L50.0 0.0L100.0 35.0L50.0 70.0L0.0 35.0Z" stroke="#323232" stroke-width="2.0" stroke-dasharray="none" opacity="1.0" fill="#ffffff"/><g id="ProcessOnG1103" transform="matrix(1.0,0.0,0.0,1.0,10.0,26.875)"><text id="ProcessOnText1104" fill="#000000" font-size="13" x="39.0" y="13.325" font-family="微软雅黑" font-weight="normal" font-style="normal" text-decoration="none" family="微软雅黑" text-anchor="middle" size="13">关注</text></g></g><g id="ProcessOnG1105" transform="matrix(1.0,0.0,0.0,1.0,604.0,849.0)" opacity="1.0"><path id="ProcessOnPath1106" d="M0.0 0.0L100.0 0.0L100.0 70.0L0.0 70.0Z" stroke="#323232" stroke-width="2.0" stroke-dasharray="none" opacity="1.0" fill="#ffffff"/><g id="ProcessOnG1107" transform="matrix(1.0,0.0,0.0,1.0,10.0,26.875)"><text id="ProcessOnText1108" fill="#000000" font-size="13" x="39.0" y="13.325" font-family="微软雅黑" font-weight="normal" font-style="normal" text-decoration="none" family="微软雅黑" text-anchor="middle" size="13">用户</text></g></g><g id="ProcessOnG1109"><path id="ProcessOnPath1110" d="M402.0 887.0L314.0 887.0" stroke="#323232" stroke-width="2.0" stroke-dasharray="none" fill="none"/></g><g id="ProcessOnG1111"><path id="ProcessOnPath1112" d="M502.0 887.0L604.0 884.0" stroke="#323232" stroke-width="2.0" stroke-dasharray="none" fill="none"/></g><g id="ProcessOnG1113" transform="matrix(1.0,0.0,0.0,1.0,402.0,747.0)" opacity="1.0"><path id="ProcessOnPath1114" d="M0.0 35.0C0.0 -11.666666666666666 100.0 -11.666666666666666 100.0 35.0C100.0 81.66666666666667 0.0 81.66666666666667 0.0 35.0Z" stroke="#323232" stroke-width="2.0" stroke-dasharray="none" opacity="1.0" fill="#ffffff"/><g id="ProcessOnG1115" transform="matrix(1.0,0.0,0.0,1.0,10.0,26.875)"><text id="ProcessOnText1116" fill="#000000" font-size="13" x="39.0" y="13.325" font-family="微软雅黑" font-weight="normal" font-style="normal" text-decoration="none" family="微软雅黑" text-anchor="middle" size="13">关注时间</text></g></g><g id="ProcessOnG1117"><path id="ProcessOnPath1118" d="M452.0 852.0L452.0 817.0" stroke="#323232" stroke-width="2.0" stroke-dasharray="none" fill="none"/></g><g id="ProcessOnG1119" transform="matrix(1.0,0.0,0.0,1.0,138.0,955.0)" opacity="1.0"><path id="ProcessOnPath1120" d="M0.0 35.0C0.0 -11.666666666666666 100.0 -11.666666666666666 100.0 35.0C100.0 81.66666666666667 0.0 81.66666666666667 0.0 35.0Z" stroke="#323232" stroke-width="2.0" stroke-dasharray="none" opacity="1.0" fill="#ffffff"/><g id="ProcessOnG1121" transform="matrix(1.0,0.0,0.0,1.0,10.0,26.875)"><text id="ProcessOnText1122" fill="#000000" font-size="13" x="39.0" y="13.325" font-family="微软雅黑" font-weight="normal" font-style="normal" text-decoration="underline" family="微软雅黑" text-anchor="middle" size="13">用户编号</text></g></g><g id="ProcessOnG1123" transform="matrix(1.0,0.0,0.0,1.0,737.0,944.0)" opacity="1.0"><path id="ProcessOnPath1124" d="M0.0 35.0C0.0 -11.666666666666666 100.0 -11.666666666666666 100.0 35.0C100.0 81.66666666666667 0.0 81.66666666666667 0.0 35.0Z" stroke="#323232" stroke-width="2.0" stroke-dasharray="none" opacity="1.0" fill="#ffffff"/><g id="ProcessOnG1125" transform="matrix(1.0,0.0,0.0,1.0,10.0,26.875)"><text id="ProcessOnText1126" fill="#000000" font-size="13" x="39.0" y="13.325" font-family="微软雅黑" font-weight="normal" font-style="normal" text-decoration="underline" family="微软雅黑" text-anchor="middle" size="13">用户编号</text></g></g><g id="ProcessOnG1127"><path id="ProcessOnPath1128" d="M243.0 922.0L214.5773817382593 959.9063077870367" stroke="#323232" stroke-width="2.0" stroke-dasharray="none" fill="none"/></g><g id="ProcessOnG1129"><path id="ProcessOnPath1130" d="M668.0 919.0L737.0 979.0" stroke="#323232" stroke-width="2.0" stroke-dasharray="none" fill="none"/></g><g id="ProcessOnG1131" transform="matrix(1.0,0.0,0.0,1.0,204.0,1101.0)" opacity="1.0"><path id="ProcessOnPath1132" d="M0.0 0.0L100.0 0.0L100.0 70.0L0.0 70.0Z" stroke="#323232" stroke-width="2.0" stroke-dasharray="none" opacity="1.0" fill="#ffffff"/><g id="ProcessOnG1133" transform="matrix(1.0,0.0,0.0,1.0,10.0,26.875)"><text id="ProcessOnText1134" fill="#000000" font-size="13" x="39.0" y="13.325" font-family="微软雅黑" font-weight="normal" font-style="normal" text-decoration="none" family="微软雅黑" text-anchor="middle" size="13">用户</text></g></g><g id="ProcessOnG1135" transform="matrix(1.0,0.0,0.0,1.0,552.0,1101.0)" opacity="1.0"><path id="ProcessOnPath1136" d="M0.0 0.0L100.0 0.0L100.0 70.0L0.0 70.0Z" stroke="#323232" stroke-width="2.0" stroke-dasharray="none" opacity="1.0" fill="#ffffff"/><g id="ProcessOnG1137" transform="matrix(1.0,0.0,0.0,1.0,10.0,26.875)"><text id="ProcessOnText1138" fill="#000000" font-size="13" x="39.0" y="13.325" font-family="微软雅黑" font-weight="normal" font-style="normal" text-decoration="none" family="微软雅黑" text-anchor="middle" size="13">推文</text></g></g><g id="ProcessOnG1139" transform="matrix(1.0,0.0,0.0,1.0,381.0,1101.0)" opacity="1.0"><path id="ProcessOnPath1140" d="M0.0 35.0L50.0 0.0L100.0 35.0L50.0 70.0L0.0 35.0Z" stroke="#323232" stroke-width="2.0" stroke-dasharray="none" opacity="1.0" fill="#ffffff"/><g id="ProcessOnG1141" transform="matrix(1.0,0.0,0.0,1.0,10.0,26.875)"><text id="ProcessOnText1142" fill="#000000" font-size="13" x="39.0" y="13.325" font-family="微软雅黑" font-weight="normal" font-style="normal" text-decoration="none" family="微软雅黑" text-anchor="middle" size="13">发布</text></g></g><g id="ProcessOnG1143"><path id="ProcessOnPath1144" d="M319.2360679774998 1136.0L381.0 1136.0" stroke="#323232" stroke-width="2.0" stroke-dasharray="none" fill="none" marker-start="url(#ProcessOnMarker1145)"/></g><g id="ProcessOnG1147"><path id="ProcessOnPath1148" d="M481.0 1136.0L552.0 1136.0" stroke="#323232" stroke-width="2.0" stroke-dasharray="none" fill="none"/></g><g id="ProcessOnG1149" transform="matrix(-1.0,1.2246467991473532E-16,-1.2246467991473532E-16,-1.0,642.0,1303.0)" opacity="1.0"><path id="ProcessOnPath1150" d="M40.0 0.0L80.0 70.0L0.0 70.0Z" stroke="#323232" stroke-width="2.0" stroke-dasharray="none" opacity="1.0" fill="#ffffff"/></g><g id="ProcessOnG1151"><path id="ProcessOnPath1152" d="M602.0 1233.0L602.0 1171.0" stroke="#323232" stroke-width="2.0" stroke-dasharray="none" fill="none"/></g><g id="ProcessOnG1153" transform="matrix(1.0,0.0,0.0,1.0,428.0,1326.0)" opacity="1.0"><path id="ProcessOnPath1154" d="M0.0 0.0L100.0 0.0L100.0 70.0L0.0 70.0Z" stroke="#323232" stroke-width="2.0" stroke-dasharray="none" opacity="1.0" fill="#ffffff"/><g id="ProcessOnG1155" transform="matrix(1.0,0.0,0.0,1.0,10.0,26.875)"><text id="ProcessOnText1156" fill="#000000" font-size="13" x="39.0" y="13.325" font-family="微软雅黑" font-weight="normal" font-style="normal" text-decoration="none" family="微软雅黑" text-anchor="middle" size="13">安利推</text></g></g><g id="ProcessOnG1157" transform="matrix(1.0,0.0,0.0,1.0,685.0,1326.0)" opacity="1.0"><path id="ProcessOnPath1158" d="M0.0 0.0L100.0 0.0L100.0 70.0L0.0 70.0Z" stroke="#323232" stroke-width="2.0" stroke-dasharray="none" opacity="1.0" fill="#ffffff"/><g id="ProcessOnG1159" transform="matrix(1.0,0.0,0.0,1.0,10.0,26.875)"><text id="ProcessOnText1160" fill="#000000" font-size="13" x="39.0" y="13.325" font-family="微软雅黑" font-weight="normal" font-style="normal" text-decoration="none" family="微软雅黑" text-anchor="middle" size="13">排雷推</text></g></g><g id="ProcessOnG1161"><path id="ProcessOnPath1162" d="M576.5980762113534 1258.5L494.0 1326.0" stroke="#323232" stroke-width="2.0" stroke-dasharray="none" fill="none"/></g><g id="ProcessOnG1163"><path id="ProcessOnPath1164" d="M630.1339745962156 1253.5L716.0 1326.0" stroke="#323232" stroke-width="2.0" stroke-dasharray="none" fill="none"/></g><g id="ProcessOnG1165" transform="matrix(1.0,0.0,0.0,1.0,522.0,1238.5)" opacity="1.0"><path id="ProcessOnPath1166" d="M0.0 0.0L160.0 0.0L160.0 40.0L0.0 40.0Z" stroke="none" stroke-width="0.0" stroke-dasharray="none" opacity="1.0" fill="none"/><g id="ProcessOnG1167" transform="matrix(1.0,0.0,0.0,1.0,0.0,11.875)"><text id="ProcessOnText1168" fill="#000000" font-size="13" x="79.0" y="13.325" font-family="微软雅黑" font-weight="normal" font-style="normal" text-decoration="none" family="微软雅黑" text-anchor="middle" size="13">ISA</text></g></g><g id="ProcessOnG1169" transform="matrix(1.0,0.0,0.0,1.0,737.0,1042.0)" opacity="1.0"><path id="ProcessOnPath1170" d="M0.0 35.0C0.0 -11.666666666666666 100.0 -11.666666666666666 100.0 35.0C100.0 81.66666666666667 0.0 81.66666666666667 0.0 35.0Z" stroke="#323232" stroke-width="2.0" stroke-dasharray="none" opacity="1.0" fill="#ffffff"/><g id="ProcessOnG1171" transform="matrix(1.0,0.0,0.0,1.0,10.0,26.875)"><text id="ProcessOnText1172" fill="#000000" font-size="13" x="39.0" y="13.325" font-family="微软雅黑" font-weight="normal" font-style="normal" text-decoration="underline" family="微软雅黑" text-anchor="middle" size="13">推文编号</text></g></g><g id="ProcessOnG1173"><path id="ProcessOnPath1174" d="M652.0 1119.0L737.0 1077.0" stroke="#323232" stroke-width="2.0" stroke-dasharray="none" fill="none"/></g><g id="ProcessOnG1175" transform="matrix(1.0,0.0,0.0,1.0,422.0,1208.5)" opacity="1.0"><path id="ProcessOnPath1176" d="M0.0 35.0C0.0 -11.666666666666666 100.0 -11.666666666666666 100.0 35.0C100.0 81.66666666666667 0.0 81.66666666666667 0.0 35.0Z" stroke="#323232" stroke-width="2.0" stroke-dasharray="none" opacity="1.0" fill="#ffffff"/><g id="ProcessOnG1177" transform="matrix(1.0,0.0,0.0,1.0,10.0,26.875)"><text id="ProcessOnText1178" fill="#000000" font-size="13" x="39.0" y="13.325" font-family="微软雅黑" font-weight="normal" font-style="normal" text-decoration="none" family="微软雅黑" text-anchor="middle" size="13">文字</text></g></g><g id="ProcessOnG1179" transform="matrix(1.0,0.0,0.0,1.0,689.0,1204.5)" opacity="1.0"><path id="ProcessOnPath1180" d="M0.0 35.0C0.0 -11.666666666666666 100.0 -11.666666666666666 100.0 35.0C100.0 81.66666666666667 0.0 81.66666666666667 0.0 35.0Z" stroke="#323232" stroke-width="2.0" stroke-dasharray="none" opacity="1.0" fill="#ffffff"/><g id="ProcessOnG1181" transform="matrix(1.0,0.0,0.0,1.0,10.0,26.875)"><text id="ProcessOnText1182" fill="#000000" font-size="13" x="39.0" y="13.325" font-family="微软雅黑" font-weight="normal" font-style="normal" text-decoration="none" family="微软雅黑" text-anchor="middle" size="13">图片</text></g></g><g id="ProcessOnG1183" transform="matrix(1.0,0.0,0.0,1.0,832.0,1143.0)" opacity="1.0"><path id="ProcessOnPath1184" d="M0.0 35.0C0.0 -11.666666666666666 100.0 -11.666666666666666 100.0 35.0C100.0 81.66666666666667 0.0 81.66666666666667 0.0 35.0Z" stroke="#323232" stroke-width="2.0" stroke-dasharray="none" opacity="1.0" fill="#ffffff"/><g id="ProcessOnG1185" transform="matrix(1.0,0.0,0.0,1.0,10.0,26.875)"><text id="ProcessOnText1186" fill="#000000" font-size="13" x="39.0" y="13.325" font-family="微软雅黑" font-weight="normal" font-style="normal" text-decoration="none" family="微软雅黑" text-anchor="middle" size="13">发布时间</text></g></g><g id="ProcessOnG1187"><path id="ProcessOnPath1188" d="M652.0 1148.0L836.914912265734 1162.4414586181063" stroke="#323232" stroke-width="2.0" stroke-dasharray="none" fill="none"/></g><g id="ProcessOnG1189" transform="matrix(1.0,0.0,0.0,1.0,571.0,983.0)" opacity="1.0"><path id="ProcessOnPath1190" d="M0.0 35.0C0.0 -11.666666666666666 100.0 -11.666666666666666 100.0 35.0C100.0 81.66666666666667 0.0 81.66666666666667 0.0 35.0Z" stroke="#323232" stroke-width="2.0" stroke-dasharray="none" opacity="1.0" fill="#ffffff"/><g id="ProcessOnG1191" transform="matrix(1.0,0.0,0.0,1.0,10.0,26.875)"><text id="ProcessOnText1192" fill="#000000" font-size="13" x="39.0" y="13.325" font-family="微软雅黑" font-weight="normal" font-style="normal" text-decoration="none" family="微软雅黑" text-anchor="middle" size="13">被踩数</text></g></g><g id="ProcessOnG1193" transform="matrix(1.0,0.0,0.0,1.0,439.0,1011.0)" opacity="1.0"><path id="ProcessOnPath1194" d="M0.0 35.0C0.0 -11.666666666666666 100.0 -11.666666666666666 100.0 35.0C100.0 81.66666666666667 0.0 81.66666666666667 0.0 35.0Z" stroke="#323232" stroke-width="2.0" stroke-dasharray="none" opacity="1.0" fill="#ffffff"/><g id="ProcessOnG1195" transform="matrix(1.0,0.0,0.0,1.0,10.0,26.875)"><text id="ProcessOnText1196" fill="#000000" font-size="13" x="39.0" y="13.325" font-family="微软雅黑" font-weight="normal" font-style="normal" text-decoration="none" family="微软雅黑" text-anchor="middle" size="13">点赞数</text></g></g><g id="ProcessOnG1197"><path id="ProcessOnPath1198" d="M579.0 1101.0L530.8786796564403 1065.8786796564405" stroke="#323232" stroke-width="2.0" stroke-dasharray="none" fill="none"/></g><g id="ProcessOnG1199"><path id="ProcessOnPath1200" d="M617.0 1101.0L621.0 1053.0" stroke="#323232" stroke-width="2.0" stroke-dasharray="none" fill="none"/></g><g id="ProcessOnG1201"><path id="ProcessOnPath1202" d="M493.74118095489746 1211.965925826289L558.5176380902051 1170.0681483474218" stroke="#323232" stroke-width="2.0" stroke-dasharray="none" fill="none"/></g><g id="ProcessOnG1203"><path id="ProcessOnPath1204" d="M718.026060429977 1207.8190778623577L651.015221207633 1164.6513770290094" stroke="#323232" stroke-width="2.0" stroke-dasharray="none" fill="none"/></g><g id="ProcessOnG1205" transform="matrix(1.0,0.0,0.0,1.0,1028.0,1097.0)" opacity="1.0"><path id="ProcessOnPath1206" d="M0.0 35.0L50.0 0.0L100.0 35.0L50.0 70.0L0.0 35.0Z" stroke="#323232" stroke-width="2.0" stroke-dasharray="none" opacity="1.0" fill="#ffffff"/><g id="ProcessOnG1207" transform="matrix(1.0,0.0,0.0,1.0,10.0,26.875)"><text id="ProcessOnText1208" fill="#000000" font-size="13" x="39.0" y="13.325" font-family="微软雅黑" font-weight="normal" font-style="normal" text-decoration="none" family="微软雅黑" text-anchor="middle" size="13">评论</text></g></g><g id="ProcessOnG1209" transform="matrix(1.0,0.0,0.0,1.0,1321.0,1097.0)" opacity="1.0"><path id="ProcessOnPath1210" d="M0.0 0.0L100.0 0.0L100.0 70.0L0.0 70.0Z" stroke="#323232" stroke-width="2.0" stroke-dasharray="none" opacity="1.0" fill="#ffffff"/><g id="ProcessOnG1211" transform="matrix(1.0,0.0,0.0,1.0,10.0,26.875)"><text id="ProcessOnText1212" fill="#000000" font-size="13" x="39.0" y="13.325" font-family="微软雅黑" font-weight="normal" font-style="normal" text-decoration="none" family="微软雅黑" text-anchor="middle" size="13">评论内容</text></g></g><g id="ProcessOnG1213"><path id="ProcessOnPath1214" d="M667.2352058920052 1135.8379233415744L1028.0 1132.0" stroke="#323232" stroke-width="2.0" stroke-dasharray="none" fill="none" marker-start="url(#ProcessOnMarker1215)"/></g><g id="ProcessOnG1217"><path id="ProcessOnPath1218" d="M1128.0 1132.0L1321.0 1132.0" stroke="#323232" stroke-width="2.0" stroke-dasharray="none" fill="none"/></g><g id="ProcessOnG1219" transform="matrix(1.0,0.0,0.0,1.0,1316.0,964.0)" opacity="1.0"><path id="ProcessOnPath1220" d="M0.0 35.0C0.0 -11.666666666666666 100.0 -11.666666666666666 100.0 35.0C100.0 81.66666666666667 0.0 81.66666666666667 0.0 35.0Z" stroke="#323232" stroke-width="2.0" stroke-dasharray="none" opacity="1.0" fill="#ffffff"/><g id="ProcessOnG1221" transform="matrix(1.0,0.0,0.0,1.0,10.0,26.875)"><text id="ProcessOnText1222" fill="#000000" font-size="13" x="39.0" y="13.325" font-family="微软雅黑" font-weight="normal" font-style="normal" text-decoration="underline" family="微软雅黑" text-anchor="middle" size="13">评论编号</text></g></g><g id="ProcessOnG1223" transform="matrix(1.0,0.0,0.0,1.0,1497.0,1011.0)" opacity="1.0"><path id="ProcessOnPath1224" d="M0.0 35.0C0.0 -11.666666666666666 100.0 -11.666666666666666 100.0 35.0C100.0 81.66666666666667 0.0 81.66666666666667 0.0 35.0Z" stroke="#323232" stroke-width="2.0" stroke-dasharray="none" opacity="1.0" fill="#ffffff"/><g id="ProcessOnG1225" transform="matrix(1.0,0.0,0.0,1.0,10.0,26.875)"><text id="ProcessOnText1226" fill="#000000" font-size="13" x="39.0" y="13.325" font-family="微软雅黑" font-weight="normal" font-style="normal" text-decoration="none" family="微软雅黑" text-anchor="middle" size="13">评论时间</text></g></g><g id="ProcessOnG1227"><path id="ProcessOnPath1228" d="M1353.173648177667 1032.0151922469877L1353.0 1097.0" stroke="#323232" stroke-width="2.0" stroke-dasharray="none" fill="none"/></g><g id="ProcessOnG1229"><path id="ProcessOnPath1230" d="M1421.0 1112.0L1506.5711504387461 1066.935822227524" stroke="#323232" stroke-width="2.0" stroke-dasharray="none" fill="none"/></g><g id="ProcessOnG1231" transform="matrix(1.0,0.0,0.0,1.0,1306.0,1226.5)" opacity="1.0"><path id="ProcessOnPath1232" d="M0.0 35.0C0.0 -11.666666666666666 100.0 -11.666666666666666 100.0 35.0C100.0 81.66666666666667 0.0 81.66666666666667 0.0 35.0Z" stroke="#323232" stroke-width="2.0" stroke-dasharray="none" opacity="1.0" fill="#ffffff"/><g id="ProcessOnG1233" transform="matrix(1.0,0.0,0.0,1.0,10.0,26.875)"><text id="ProcessOnText1234" fill="#000000" font-size="13" x="39.0" y="13.325" font-family="微软雅黑" font-weight="normal" font-style="normal" text-decoration="none" family="微软雅黑" text-anchor="middle" size="13">评论文字</text></g></g><g id="ProcessOnG1235" transform="matrix(1.0,0.0,0.0,1.0,1472.0,1204.5)" opacity="1.0"><path id="ProcessOnPath1236" d="M0.0 35.0C0.0 -11.666666666666666 100.0 -11.666666666666666 100.0 35.0C100.0 81.66666666666667 0.0 81.66666666666667 0.0 35.0Z" stroke="#323232" stroke-width="2.0" stroke-dasharray="none" opacity="1.0" fill="#ffffff"/><g id="ProcessOnG1237" transform="matrix(1.0,0.0,0.0,1.0,10.0,26.875)"><text id="ProcessOnText1238" fill="#000000" font-size="13" x="39.0" y="13.325" font-family="微软雅黑" font-weight="normal" font-style="normal" text-decoration="none" family="微软雅黑" text-anchor="middle" size="13">评论图片</text></g></g><g id="ProcessOnG1239"><path id="ProcessOnPath1240" d="M1492.8452365234814 1210.8126155740733L1421.0 1155.0" stroke="#323232" stroke-width="2.0" stroke-dasharray="none" fill="none"/></g><g id="ProcessOnG1241"><path id="ProcessOnPath1242" d="M1350.0 1167.0L1340.3472963553338 1228.9696155060244" stroke="#323232" stroke-width="2.0" stroke-dasharray="none" fill="none"/></g><g id="ProcessOnG1243" transform="matrix(1.0,0.0,0.0,1.0,1675.5714285714273,343.5714285714291)" opacity="1.0"><path id="ProcessOnPath1244" d="M0.0 35.0L50.0 0.0L100.0 35.0L50.0 70.0L0.0 35.0Z" stroke="#323232" stroke-width="2.0" stroke-dasharray="none" opacity="1.0" fill="#ffffff"/><g id="ProcessOnG1245" transform="matrix(1.0,0.0,0.0,1.0,10.0,26.875)"><text id="ProcessOnText1246" fill="#000000" font-size="13" x="39.0" y="13.325" font-family="微软雅黑" font-weight="normal" font-style="normal" text-decoration="none" family="微软雅黑" text-anchor="middle" size="13">对话</text></g></g><g id="ProcessOnG1247" transform="matrix(1.0,0.0,0.0,1.0,1485.571428571428,343.5714285714291)" opacity="1.0"><path id="ProcessOnPath1248" d="M0.0 0.0L100.0 0.0L100.0 70.0L0.0 70.0Z" stroke="#323232" stroke-width="2.0" stroke-dasharray="none" opacity="1.0" fill="#ffffff"/><g id="ProcessOnG1249" transform="matrix(1.0,0.0,0.0,1.0,10.0,26.875)"><text id="ProcessOnText1250" fill="#000000" font-size="13" x="39.0" y="13.325" font-family="微软雅黑" font-weight="normal" font-style="normal" text-decoration="none" family="微软雅黑" text-anchor="middle" size="13">用户</text></g></g><g id="ProcessOnG1251" transform="matrix(1.0,0.0,0.0,1.0,1862.5714285714264,343.5714285714291)" opacity="1.0"><path id="ProcessOnPath1252" d="M0.0 0.0L100.0 0.0L100.0 70.0L0.0 70.0Z" stroke="#323232" stroke-width="2.0" stroke-dasharray="none" opacity="1.0" fill="#ffffff"/><g id="ProcessOnG1253" transform="matrix(1.0,0.0,0.0,1.0,10.0,26.875)"><text id="ProcessOnText1254" fill="#000000" font-size="13" x="39.0" y="13.325" font-family="微软雅黑" font-weight="normal" font-style="normal" text-decoration="none" family="微软雅黑" text-anchor="middle" size="13">用户</text></g></g><g id="ProcessOnG1255"><path id="ProcessOnPath1256" d="M1585.5714285714275 378.57142857142924L1675.5714285714273 378.57142857142924" stroke="#323232" stroke-width="2.0" stroke-dasharray="none" fill="none"/></g><g id="ProcessOnG1257"><path id="ProcessOnPath1258" d="M1775.5714285714268 378.57142857142924L1862.5714285714264 378.57142857142924" stroke="#323232" stroke-width="2.0" stroke-dasharray="none" fill="none"/></g><g id="ProcessOnG1259" transform="matrix(1.0,0.0,0.0,1.0,1585.2857142857133,228.57142857142867)" opacity="1.0"><path id="ProcessOnPath1260" d="M0.0 35.0C0.0 -11.666666666666666 100.0 -11.666666666666666 100.0 35.0C100.0 81.66666666666667 0.0 81.66666666666667 0.0 35.0Z" stroke="#323232" stroke-width="2.0" stroke-dasharray="none" opacity="1.0" fill="#ffffff"/><g id="ProcessOnG1261" transform="matrix(1.0,0.0,0.0,1.0,10.0,26.875)"><text id="ProcessOnText1262" fill="#000000" font-size="13" x="39.0" y="13.325" font-family="微软雅黑" font-weight="normal" font-style="normal" text-decoration="none" family="微软雅黑" text-anchor="middle" size="13">对话时间</text></g></g><g id="ProcessOnG1263"><path id="ProcessOnPath1264" d="M1713.4393107531823 352.6671887928743L1635.285714285713 298.57142857142895" stroke="#323232" stroke-width="2.0" stroke-dasharray="none" fill="none"/></g><g id="ProcessOnG1265" transform="matrix(1.0,0.0,0.0,1.0,1775.2857142857126,238.57142857142878)" opacity="1.0"><path id="ProcessOnPath1266" d="M0.0 35.0C0.0 -11.666666666666666 100.0 -11.666666666666666 100.0 35.0C100.0 81.66666666666667 0.0 81.66666666666667 0.0 35.0Z" stroke="#323232" stroke-width="2.0" stroke-dasharray="none" opacity="1.0" fill="#ffffff"/><g id="ProcessOnG1267" transform="matrix(1.0,0.0,0.0,1.0,10.0,26.875)"><text id="ProcessOnText1268" fill="#000000" font-size="13" x="39.0" y="13.325" font-family="微软雅黑" font-weight="normal" font-style="normal" text-decoration="none" family="微软雅黑" text-anchor="middle" size="13">对话文字</text></g></g><g id="ProcessOnG1269" transform="matrix(1.0,0.0,0.0,1.0,1705.42857142857,435.57142857142946)" opacity="1.0"><path id="ProcessOnPath1270" d="M0.0 35.0C0.0 -11.666666666666666 100.0 -11.666666666666666 100.0 35.0C100.0 81.66666666666667 0.0 81.66666666666667 0.0 35.0Z" stroke="#323232" stroke-width="2.0" stroke-dasharray="none" opacity="1.0" fill="#ffffff"/><g id="ProcessOnG1271" transform="matrix(1.0,0.0,0.0,1.0,10.0,26.875)"><text id="ProcessOnText1272" fill="#000000" font-size="13" x="39.0" y="13.325" font-family="微软雅黑" font-weight="normal" font-style="normal" text-decoration="none" family="微软雅黑" text-anchor="middle" size="13">对话图片</text></g></g><g id="ProcessOnG1273"><path id="ProcessOnPath1274" d="M1742.4242756987248 400.9331244828513L1733.2403047442876 439.332909355453" stroke="#323232" stroke-width="2.0" stroke-dasharray="none" fill="none"/></g><g id="ProcessOnG1275"><path id="ProcessOnPath1276" d="M1753.4242756987246 364.2097326600072L1790.0064435947656 298.1139724385619" stroke="#323232" stroke-width="2.0" stroke-dasharray="none" fill="none"/></g><g id="ProcessOnG1277" transform="matrix(1.0,0.0,0.0,1.0,1509.4285714285709,435.57142857142946)" opacity="1.0"><path id="ProcessOnPath1278" d="M0.0 35.0C0.0 -11.666666666666666 100.0 -11.666666666666666 100.0 35.0C100.0 81.66666666666667 0.0 81.66666666666667 0.0 35.0Z" stroke="#323232" stroke-width="2.0" stroke-dasharray="none" opacity="1.0" fill="#ffffff"/><g id="ProcessOnG1279" transform="matrix(1.0,0.0,0.0,1.0,10.0,26.875)"><text id="ProcessOnText1280" fill="#000000" font-size="13" x="39.0" y="13.325" font-family="微软雅黑" font-weight="normal" font-style="normal" text-decoration="underline" family="微软雅黑" text-anchor="middle" size="13">对话编号</text></g></g><g id="ProcessOnG1281"><path id="ProcessOnPath1282" d="M1696.8657343168313 392.29482039427324L1580.652114293263 439.46920605029686" stroke="#323232" stroke-width="2.0" stroke-dasharray="none" fill="none"/></g><g id="ProcessOnG1283" transform="matrix(1.0,0.0,0.0,1.0,1456.7857142857138,231.07142857142867)" opacity="1.0"><path id="ProcessOnPath1284" d="M0.0 35.0C0.0 -11.666666666666666 100.0 -11.666666666666666 100.0 35.0C100.0 81.66666666666667 0.0 81.66666666666667 0.0 35.0Z" stroke="#323232" stroke-width="2.0" stroke-dasharray="none" opacity="1.0" fill="#ffffff"/><g id="ProcessOnG1285" transform="matrix(1.0,0.0,0.0,1.0,10.0,26.875)"><text id="ProcessOnText1286" fill="#000000" font-size="13" x="39.0" y="13.325" font-family="微软雅黑" font-weight="normal" font-style="normal" text-decoration="underline" family="微软雅黑" text-anchor="middle" size="13">用户编号</text></g></g><g id="ProcessOnG1287" transform="matrix(1.0,0.0,0.0,1.0,2010.5714285714255,255.07142857142878)" opacity="1.0"><path id="ProcessOnPath1288" d="M0.0 35.0C0.0 -11.666666666666666 100.0 -11.666666666666666 100.0 35.0C100.0 81.66666666666667 0.0 81.66666666666667 0.0 35.0Z" stroke="#323232" stroke-width="2.0" stroke-dasharray="none" opacity="1.0" fill="#ffffff"/><g id="ProcessOnG1289" transform="matrix(1.0,0.0,0.0,1.0,10.0,26.875)"><text id="ProcessOnText1290" fill="#000000" font-size="13" x="39.0" y="13.325" font-family="微软雅黑" font-weight="normal" font-style="normal" text-decoration="underline" family="微软雅黑" text-anchor="middle" size="13">用户编号</text></g></g><g id="ProcessOnG1291"><path id="ProcessOnPath1292" d="M1962.571428571426 358.5714285714292L2036.2815292880537 320.8729654674995" stroke="#323232" stroke-width="2.0" stroke-dasharray="none" fill="none"/></g><g id="ProcessOnG1293"><path id="ProcessOnPath1294" d="M1517.571428571428 343.5714285714291L1506.7857142857138 301.07142857142895" stroke="#323232" stroke-width="2.0" stroke-dasharray="none" fill="none"/></g><g id="ProcessOnG1295" transform="matrix(1.0,0.0,0.0,1.0,261.0,304.0)" opacity="1.0"><path id="ProcessOnPath1296" d="M0.0 35.0C0.0 -11.666666666666666 100.0 -11.666666666666666 100.0 35.0C100.0 81.66666666666667 0.0 81.66666666666667 0.0 35.0Z" stroke="#323232" stroke-width="2.0" stroke-dasharray="none" opacity="1.0" fill="#ffffff"/><g id="ProcessOnG1297" transform="matrix(1.0,0.0,0.0,1.0,10.0,26.875)"><text id="ProcessOnText1298" fill="#000000" font-size="13" x="39.0" y="13.325" font-family="微软雅黑" font-weight="normal" font-style="normal" text-decoration="none" family="微软雅黑" text-anchor="middle" size="13">出生日期</text></g></g><g id="ProcessOnG1299"><path id="ProcessOnPath1300" d="M350.0716371709404 316.2981333293569L461.0 261.0" stroke="#323232" stroke-width="2.0" stroke-dasharray="none" fill="none"/></g><g id="ProcessOnG1301" transform="matrix(1.0,0.0,0.0,1.0,1856.0,1096.0)" opacity="1.0"><path id="ProcessOnPath1302" d="M0.0 0.0L100.0 0.0L100.0 70.0L0.0 70.0Z" stroke="#787878" stroke-width="2.0" stroke-dasharray="none" opacity="1.0" fill="#ffffff"/><path id="ProcessOnPath1303" d="M4.666666666666667 4.666666666666667L95.33333333333333 4.666666666666667L95.33333333333333 65.33333333333333L4.666666666666671 65.33333333333333Z" stroke="#323232" stroke-width="2.0" stroke-dasharray="none" opacity="1.0" fill="none"/><path id="ProcessOnPath1304" d="M0.0 0.0L100.0 0.0L100.0 70.0L0.0 70.0Z" stroke="none" stroke-width="0.0" stroke-dasharray="none" opacity="1.0" fill="none"/><g id="ProcessOnG1305" transform="matrix(1.0,0.0,0.0,1.0,10.0,26.875)"><text id="ProcessOnText1306" fill="#000000" font-size="13" x="39.0" y="13.325" font-family="微软雅黑" font-weight="normal" font-style="normal" text-decoration="none" family="微软雅黑" text-anchor="middle" size="13">次级评论</text></g></g><g id="ProcessOnG1307" transform="matrix(1.0,0.0,0.0,1.0,1600.0,1096.0)" opacity="1.0"><path id="ProcessOnPath1308" d="M0.0 40.0L50.0 0.0L100.0 40.0L50.0 80.0L0.0 40.0Z" stroke="#323232" stroke-width="2.0" stroke-dasharray="none" opacity="1.0" fill="#ffffff"/><path id="ProcessOnPath1309" d="M4.0 40.0L50.0 4.0L96.0 40.0L50.0 76.0L4.0 40.0Z" stroke="#323232" stroke-width="2.0" stroke-dasharray="none" opacity="1.0" fill="none"/><path id="ProcessOnPath1310" d="M0.0 40.0L50.0 0.0L100.0 40.0L50.0 80.0L0.0 40.0Z" stroke="none" stroke-width="0.0" stroke-dasharray="none" opacity="1.0" fill="none"/><g id="ProcessOnG1311" transform="matrix(1.0,0.0,0.0,1.0,10.0,31.875)"><text id="ProcessOnText1312" fill="#000000" font-size="13" x="39.0" y="13.325" font-family="微软雅黑" font-weight="normal" font-style="normal" text-decoration="none" family="微软雅黑" text-anchor="middle" size="13">回复评论</text></g></g><g id="ProcessOnG1313"><path id="ProcessOnPath1314" d="M1689.0716371709404 1128.298133329357L1856.0 1131.0" stroke="#323232" stroke-width="2.0" stroke-dasharray="none" fill="none"/></g><g id="ProcessOnG1315"><path id="ProcessOnPath1316" d="M1693.1321178182448 1140.904239778555L1856.0 1142.0" stroke="#323232" stroke-width="2.0" stroke-dasharray="none" fill="none"/></g><g id="ProcessOnG1317"><path id="ProcessOnPath1318" d="M1436.232265258699 1132.340385815837L1600.0 1136.0" stroke="#323232" stroke-width="2.0" stroke-dasharray="none" fill="none" marker-start="url(#ProcessOnMarker1319)"/></g><g id="ProcessOnG1321" transform="matrix(1.0,0.0,0.0,1.0,1865.0,964.0)" opacity="1.0"><path id="ProcessOnPath1322" d="M0.0 35.0C0.0 -11.666666666666666 100.0 -11.666666666666666 100.0 35.0C100.0 81.66666666666667 0.0 81.66666666666667 0.0 35.0Z" stroke="#323232" stroke-width="2.0" stroke-dasharray="none" opacity="1.0" fill="#ffffff"/><g id="ProcessOnG1323" transform="matrix(1.0,0.0,0.0,1.0,10.0,26.875)"><text id="ProcessOnText1324" fill="#000000" font-size="13" x="39.0" y="13.325" font-family="微软雅黑" font-weight="normal" font-style="normal" text-decoration="none" family="微软雅黑" text-anchor="middle" size="13">次级评论时间</text></g></g><g id="ProcessOnG1325" transform="matrix(1.0,0.0,0.0,1.0,1982.5,1208.5)" opacity="1.0"><path id="ProcessOnPath1326" d="M0.0 35.0C0.0 -11.666666666666666 100.0 -11.666666666666666 100.0 35.0C100.0 81.66666666666667 0.0 81.66666666666667 0.0 35.0Z" stroke="#323232" stroke-width="2.0" stroke-dasharray="none" opacity="1.0" fill="#ffffff"/><g id="ProcessOnG1327" transform="matrix(1.0,0.0,0.0,1.0,10.0,26.875)"><text id="ProcessOnText1328" fill="#000000" font-size="13" x="39.0" y="13.325" font-family="微软雅黑" font-weight="normal" font-style="normal" text-decoration="none" family="微软雅黑" text-anchor="middle" size="13">次级评论图片</text></g></g><g id="ProcessOnG1329" transform="matrix(1.0,0.0,0.0,1.0,2082.5,1008.5)" opacity="1.0"><path id="ProcessOnPath1330" d="M0.0 35.0C0.0 -11.666666666666666 100.0 -11.666666666666666 100.0 35.0C100.0 81.66666666666667 0.0 81.66666666666667 0.0 35.0Z" stroke="#323232" stroke-width="2.0" stroke-dasharray="none" opacity="1.0" fill="#ffffff"/><g id="ProcessOnG1331" transform="matrix(1.0,0.0,0.0,1.0,10.0,26.875)"><text id="ProcessOnText1332" fill="#000000" font-size="13" x="39.0" y="13.325" font-family="微软雅黑" font-weight="normal" font-style="normal" text-decoration="none" family="微软雅黑" text-anchor="middle" size="13">次级评论文字</text></g></g><g id="ProcessOnG1333" transform="matrix(1.0,0.0,0.0,1.0,1794.5,1233.0)" opacity="1.0"><path id="ProcessOnPath1334" d="M0.0 35.0C0.0 -11.666666666666666 100.0 -11.666666666666666 100.0 35.0C100.0 81.66666666666667 0.0 81.66666666666667 0.0 35.0Z" stroke="#323232" stroke-width="2.0" stroke-dasharray="none" opacity="1.0" fill="#ffffff"/><g id="ProcessOnG1335" transform="matrix(1.0,0.0,0.0,1.0,10.0,26.875)"><text id="ProcessOnText1336" fill="#000000" font-size="13" x="39.0" y="13.325" font-family="微软雅黑" font-weight="normal" font-style="normal" text-decoration="underline" family="微软雅黑" text-anchor="middle" size="13">次级评论编号</text></g></g><g id="ProcessOnG1337"><path id="ProcessOnPath1338" d="M1862.482361909795 1235.9318516525782L1906.0 1166.0" stroke="#323232" stroke-width="2.0" stroke-dasharray="none" fill="none"/></g><g id="ProcessOnG1339"><path id="ProcessOnPath1340" d="M1993.6427876096866 1221.766044443119L1939.0 1166.0" stroke="#323232" stroke-width="2.0" stroke-dasharray="none" fill="none"/></g><g id="ProcessOnG1341"><path id="ProcessOnPath1342" d="M1956.0 1118.0L2088.1961524227067 1060.0" stroke="#323232" stroke-width="2.0" stroke-dasharray="none" fill="none"/></g><g id="ProcessOnG1343"><path id="ProcessOnPath1344" d="M1926.0 1096.0L1924.4790554669992 1033.0455767409633" stroke="#323232" stroke-width="2.0" stroke-dasharray="none" fill="none"/></g><g id="ProcessOnG1345" transform="matrix(1.0,0.0,0.0,1.0,1117.0,435.57142857142946)" opacity="1.0"><path id="ProcessOnPath1346" d="M0.0 35.0C0.0 -11.666666666666666 100.0 -11.666666666666666 100.0 35.0C100.0 81.66666666666667 0.0 81.66666666666667 0.0 35.0M4.0 35.0C4.0 -7.666666666666666 96.0 -7.666666666666666 96.0 35.0C96.0 77.66666666666667 4.0 77.66666666666667 4.0 35.0Z" stroke="#323232" stroke-width="2.0" stroke-dasharray="none" opacity="1.0" fill="#ffffff"/><g id="ProcessOnG1347" transform="matrix(1.0,0.0,0.0,1.0,10.0,26.875)"><text id="ProcessOnText1348" fill="#000000" font-size="13" x="39.0" y="13.325" font-family="微软雅黑" font-weight="normal" font-style="normal" text-decoration="none" family="微软雅黑" text-anchor="middle" size="13">营业时间</text></g></g></g></g></svg>